<?xml version="1.0" encoding="UTF-8" standalone="no"?>
<!-- Created with Inkscape (http://www.inkscape.org/) -->

<svg
   xmlns:dc="http://purl.org/dc/elements/1.1/"
   xmlns:cc="http://creativecommons.org/ns#"
   xmlns:rdf="http://www.w3.org/1999/02/22-rdf-syntax-ns#"
   xmlns:svg="http://www.w3.org/2000/svg"
   xmlns="http://www.w3.org/2000/svg"
   xmlns:sodipodi="http://sodipodi.sourceforge.net/DTD/sodipodi-0.dtd"
   xmlns:inkscape="http://www.inkscape.org/namespaces/inkscape"
   width="343pt"
   height="340pt"
   viewBox="0 0 343 340"
   id="svg4174"
   version="1.1"
   inkscape:version="0.91 r13725"
   sodipodi:docname="logo.svg">
  <defs
     id="defs4176" />
  <sodipodi:namedview
     pagecolor="#ffffff"
     bordercolor="#666666"
     borderopacity="1.0"
     inkscape:pageopacity="0.0"
     inkscape:pageshadow="2"
     inkscape:zoom="0.840625"
     inkscape:cx="-41.753725"
     inkscape:cy="291.45207"
     inkscape:document-units="pt"
     inkscape:current-layer="layer1"
     id="namedview4178"
     showgrid="false"
     inkscape:window-width="1368"
     inkscape:window-height="740"
     inkscape:window-x="0"
     inkscape:window-y="0"
     inkscape:window-maximized="1" />
  <metadata
     id="metadata4180">
    <rdf:RDF>
      <cc:Work
         rdf:about="">
        <dc:format>image/svg+xml</dc:format>
        <dc:type
           rdf:resource="http://purl.org/dc/dcmitype/StillImage" />
        <dc:title></dc:title>
      </cc:Work>
    </rdf:RDF>
  </metadata>
  <g
     inkscape:label="Layer 1"
     inkscape:groupmode="layer"
     id="layer1">
    <path
       style="opacity:1;fill:#ee566f;fill-opacity:1;stroke:none;stroke-width:2.70000005;stroke-linejoin:round;stroke-miterlimit:4;stroke-dasharray:none;stroke-opacity:1"
       d="M 214.375 -1.6269531 A 214.1264 214.1264 0 0 0 0.24804688 212.5 A 214.1264 214.1264 0 0 0 214.375 426.62695 A 214.1264 214.1264 0 0 0 428.50195 212.5 A 214.1264 214.1264 0 0 0 214.375 -1.6269531 z M 214.375 24.544922 A 187.9554 187.9554 0 0 1 402.33008 212.5 A 187.9554 187.9554 0 0 1 214.375 400.45508 A 187.9554 187.9554 0 0 1 26.419922 212.5 A 187.9554 187.9554 0 0 1 214.375 24.544922 z "
       transform="scale(0.8,0.8)"
       id="path4729" />
    <path
       style="fill:#ee566f;fill-opacity:1"
       d="m 166.08572,282.72266 c -25.22174,-2.27161 -46.87067,-15.77448 -59.28999,-36.98036 -4.85965,-8.29781 -7.744905,-16.23904 -9.388755,-25.84116 -1.165273,-6.80662 -1.17125,-17.20314 -0.0138,-23.9996 1.861625,-10.93138 5.289945,-22.44654 10.376305,-34.85242 3.79863,-9.26502 4.03283,-9.77855 8.81243,-19.32232 10.03263,-20.03293 21.76235,-38.69997 34.10931,-54.282624 4.28206,-5.40424 8.14433,-9.82453 12.21335,-13.97796 5.17174,-5.27901 16.38355,-16.25202 16.60571,-16.25202 0.10897,0 0.39133,2.55976 0.62746,5.68835 1.58645,21.019 1.97186,23.50504 4.91926,31.731523 1.68514,4.70341 6.43869,14.280991 10.10831,20.366521 2.58451,4.28602 9.26935,14.35133 12.02906,18.11203 0.83968,1.14426 8.44549,11.72776 15.49086,21.55556 3.92383,5.47346 12.383,18.23931 12.383,18.68734 0,0.12258 0.306,0.65427 0.67999,1.18153 0.73051,1.02991 5.49349,10.36267 6.2032,12.15478 1.5992,4.03821 2.93873,8.30289 3.65782,11.64552 1.15485,5.36814 1.14816,14.71893 -0.0154,21.56379 -4.08629,24.0378 -19.03326,44.28358 -40.61101,55.00796 -10.09354,5.0166 -20.328,7.54425 -31.67376,7.8226 -3.07893,0.0755 -6.32942,0.0715 -7.2233,-0.009 z m 13.90485,-20.06786 c 17.7768,-2.66978 33.30522,-14.18191 41.64048,-30.87055 3.88234,-7.77314 6.29624,-20.70435 5.18135,-27.7565 -1.45101,-9.17827 -7.4328,-20.49651 -20.29995,-38.40981 -1.47675,-2.05589 -3.01004,-4.19257 -3.40732,-4.74819 -0.39728,-0.55561 -1.69748,-2.34373 -2.88932,-3.97358 -1.19185,-1.62986 -2.40959,-3.3125 -2.7061,-3.73919 -0.2965,-0.4267 -2.24803,-3.13242 -4.33673,-6.01271 -11.94816,-16.47639 -20.61484,-31.13685 -24.95337,-42.21085 -2.38928,-6.098581 -1.98402,-5.715001 -3.74275,-3.5424 -3.01067,3.71913 -10.19987,13.87421 -13.09874,18.50259 -7.56326,12.07561 -11.24949,18.51386 -16.32615,28.51474 -11.1045,21.87554 -17.69678,41.04752 -18.88846,54.93233 -2.27891,26.55243 14.94115,50.9125 41.07201,58.10182 6.62825,1.82362 15.52761,2.29774 22.75505,1.2123 z m -16.61358,-14.59657 c -7.53932,-1.32704 -14.81763,-5.16132 -20.66542,-10.88673 -7.34804,-7.19427 -11.6404,-15.06029 -13.48498,-24.71208 -1.32176,-6.91619 -0.65778,-15.33653 1.80964,-22.94895 1.21734,-3.75569 3.73955,-9.18467 5.50429,-11.84776 2.54119,-3.83483 5.81996,-7.89418 6.12766,-7.58649 0.0955,0.0955 -0.0294,1.59777 -0.27757,3.33833 -2.41554,16.94109 -2.55719,27.32273 -0.50415,36.94623 3.01333,14.12477 14.74657,29.23021 27.76333,35.74268 1.78664,0.89388 3.25961,1.72587 3.27325,1.84886 0.0849,0.76541 -5.45034,0.82682 -9.54605,0.10591 z"
       id="path4147"
       inkscape:connector-curvature="0" />
  </g>
</svg>
